<svg width="750" height="750" viewBox="0 0 750 750" fill="none" xmlns="http://www.w3.org/2000/svg">
<rect width="750" height="750" fill="white"/>
<path fill-rule="evenodd" clip-rule="evenodd" d="M560 267L455 299.5L457.426 313.617C433.395 318.394 380.824 332.5 352.5 368C344.189 384.636 337.838 458.488 347.5 492C347.5 492 360 498.497 360 499C402.841 536 490.965 620.832 528.412 666.112C567.175 635.896 611.333 629.217 626.587 654.125C631.143 661.505 634.603 670.247 638.068 678.998C643.01 691.482 647.959 703.984 656.104 712.575C663.95 720.829 674.508 725 685.096 725C703.967 725 725.083 710.154 725.083 684.983C725.083 675.067 721.438 665.092 714.088 657.275C705.974 648.749 693.814 643.197 681.655 637.647C672.31 633.381 662.966 629.115 655.463 623.5C633.208 606.875 643.504 565.517 675.004 529C645.618 502.35 600.461 454.842 560 411.011V267ZM675.471 694.142C680.488 699.537 688.975 699.712 694.254 694.696C699.621 689.562 699.825 681.104 694.721 675.796C689.646 670.429 681.275 670.225 675.908 675.329C670.629 680.346 670.308 688.804 675.471 694.142ZM558.192 454.741L461.504 546.85C479.722 564.534 488.781 574.115 504.379 590.614L506.159 592.496C522.988 610.23 534.508 599.934 529.171 584.621C528.709 583.31 528.201 581.962 527.687 580.598C524.724 572.742 521.577 564.399 526.225 559.975C532.093 554.385 540.45 559.125 548.777 563.848C557.046 568.539 565.285 573.212 571.025 567.733C578.654 560.477 569.59 547.618 560.721 535.036C552.23 522.99 543.917 511.197 550.608 504.82C557.619 498.136 568.854 506.1 579.909 513.936C590.61 521.522 601.143 528.988 607.512 522.934C611.042 519.55 610.808 512.433 603.487 504.762C601.678 502.851 599.914 500.99 598.19 499.172C582.684 482.817 570.45 469.913 558.192 454.741Z" fill="#33CE2A"/>
<path fill-rule="evenodd" clip-rule="evenodd" d="M360.417 684.167L459.7 631.2C466.642 638.783 473.379 646.337 479.679 653.6L345.833 725L25 553.821V200L345.833 25L666.696 201.925V482.275C657.1 472.971 647.271 462.967 637.529 452.554V233.337C586.765 259.461 361 375.87 361 375.87C361 377.495 360.417 589.993 360.417 684.167ZM331.25 375.875L54.1667 231.617V536.321L331.25 684.167V375.875ZM476.529 283.388L198.454 138.604L71.6083 207.817L345.892 350.617L476.529 283.388ZM229.312 121.775L508.292 267.025L620.058 209.508L345.746 58.2792L229.312 121.775Z" fill="#2B2B2B"/>
</svg>
